<svg width="20" height="20" viewBox="0 0 20 20" fill="none" xmlns="http://www.w3.org/2000/svg">
<rect width="20" height="20" fill="#F5F5F5"/>
<g id="Desktop 1400" clip-path="url(#clip0_0_1)">
<rect width="1400" height="6956" transform="translate(-138 -4605)" fill="white"/>
<g id="online">
<rect id="Rectangle 6" x="-138" y="-178" width="1400" height="500" fill="#5D6D5C"/>
<g id="Vector">
<path d="M13.809 6.50663L8.162 12.0352L5.692 9.617L5.684 9.61015C5.63735 9.56408 5.58181 9.52754 5.52062 9.50267C5.45942 9.47779 5.39378 9.46507 5.32752 9.46525C5.26126 9.46543 5.19569 9.4785 5.13464 9.50371C5.07358 9.52891 5.01825 9.56575 4.97186 9.61207C4.92548 9.65839 4.88896 9.71328 4.86443 9.77355C4.83989 9.83381 4.82784 9.89825 4.82897 9.96311C4.8301 10.028 4.84439 10.092 4.871 10.1514C4.89762 10.2108 4.93603 10.2644 4.984 10.3092L7.809 13.074C7.85529 13.1196 7.91036 13.1559 7.97103 13.1806C8.0317 13.2054 8.09678 13.2181 8.1625 13.2181C8.22822 13.2181 8.2933 13.2054 8.35397 13.1806C8.41464 13.1559 8.46971 13.1196 8.516 13.074L14.516 7.19978L14.523 7.19195C14.6136 7.09883 14.6632 6.97453 14.6609 6.84594C14.6587 6.71734 14.6048 6.59477 14.511 6.50473C14.4172 6.41469 14.291 6.36441 14.1596 6.36477C14.0282 6.36512 13.9023 6.41608 13.809 6.50663ZM10 0C4.477 0 0 4.38311 0 9.79029C0 15.1975 4.477 19.5806 10 19.5806C15.52 19.5747 19.994 15.1945 20 9.79029C20 4.38311 15.523 0 10 0ZM10 18.6015C8.8181 18.6015 7.64778 18.3736 6.55585 17.9308C5.46392 17.488 4.47177 16.839 3.63604 16.0208C2.80031 15.2026 2.13738 14.2312 1.68508 13.1622C1.23279 12.0932 1 10.9474 1 9.79029C1 8.63318 1.23279 7.4874 1.68508 6.41837C2.13738 5.34933 2.80031 4.37799 3.63604 3.55979C4.47177 2.74159 5.46392 2.09255 6.55585 1.64975C7.64778 1.20694 8.8181 0.979029 10 0.979029C12.3861 0.98162 14.6738 1.91078 16.361 3.56265C18.0483 5.21452 18.9974 7.45419 19 9.79029C19 12.1272 18.0518 14.3684 16.364 16.0208C14.6761 17.6732 12.3869 18.6015 10 18.6015Z" fill="white"/>
<path d="M13.809 6.50663L8.162 12.0352L5.692 9.617L5.684 9.61015C5.63735 9.56408 5.58181 9.52754 5.52062 9.50267C5.45942 9.47779 5.39378 9.46507 5.32752 9.46525C5.26126 9.46543 5.19569 9.4785 5.13464 9.50371C5.07358 9.52891 5.01825 9.56575 4.97186 9.61207C4.92548 9.65839 4.88896 9.71328 4.86443 9.77355C4.83989 9.83381 4.82784 9.89825 4.82897 9.96311C4.8301 10.028 4.84439 10.092 4.871 10.1514C4.89762 10.2108 4.93603 10.2644 4.984 10.3092L7.809 13.074C7.85529 13.1196 7.91036 13.1559 7.97103 13.1806C8.0317 13.2054 8.09678 13.2181 8.1625 13.2181C8.22822 13.2181 8.2933 13.2054 8.35397 13.1806C8.41464 13.1559 8.46971 13.1196 8.516 13.074L14.516 7.19978L14.523 7.19195C14.6136 7.09883 14.6632 6.97453 14.6609 6.84594C14.6587 6.71734 14.6048 6.59477 14.511 6.50473C14.4172 6.41469 14.291 6.36441 14.1596 6.36477C14.0282 6.36512 13.9023 6.41608 13.809 6.50663ZM10 0C4.477 0 0 4.38311 0 9.79029C0 15.1975 4.477 19.5806 10 19.5806C15.52 19.5747 19.994 15.1945 20 9.79029C20 4.38311 15.523 0 10 0ZM10 18.6015C8.8181 18.6015 7.64778 18.3736 6.55585 17.9308C5.46392 17.488 4.47177 16.839 3.63604 16.0208C2.80031 15.2026 2.13738 14.2312 1.68508 13.1622C1.23279 12.0932 1 10.9474 1 9.79029C1 8.63318 1.23279 7.4874 1.68508 6.41837C2.13738 5.34933 2.80031 4.37799 3.63604 3.55979C4.47177 2.74159 5.46392 2.09255 6.55585 1.64975C7.64778 1.20694 8.8181 0.979029 10 0.979029C12.3861 0.98162 14.6738 1.91078 16.361 3.56265C18.0483 5.21452 18.9974 7.45419 19 9.79029C19 12.1272 18.0518 14.3684 16.364 16.0208C14.6761 17.6732 12.3869 18.6015 10 18.6015Z" fill="white"/>
<path d="M13.809 6.50663L8.162 12.0352L5.692 9.617L5.684 9.61015C5.63735 9.56408 5.58181 9.52754 5.52062 9.50267C5.45942 9.47779 5.39378 9.46507 5.32752 9.46525C5.26126 9.46543 5.19569 9.4785 5.13464 9.50371C5.07358 9.52891 5.01825 9.56575 4.97186 9.61207C4.92548 9.65839 4.88896 9.71328 4.86443 9.77355C4.83989 9.83381 4.82784 9.89825 4.82897 9.96311C4.8301 10.028 4.84439 10.092 4.871 10.1514C4.89762 10.2108 4.93603 10.2644 4.984 10.3092L7.809 13.074C7.85529 13.1196 7.91036 13.1559 7.97103 13.1806C8.0317 13.2054 8.09678 13.2181 8.1625 13.2181C8.22822 13.2181 8.2933 13.2054 8.35397 13.1806C8.41464 13.1559 8.46971 13.1196 8.516 13.074L14.516 7.19978L14.523 7.19195C14.6136 7.09883 14.6632 6.97453 14.6609 6.84594C14.6587 6.71734 14.6048 6.59477 14.511 6.50473C14.4172 6.41469 14.291 6.36441 14.1596 6.36477C14.0282 6.36512 13.9023 6.41608 13.809 6.50663ZM10 0C4.477 0 0 4.38311 0 9.79029C0 15.1975 4.477 19.5806 10 19.5806C15.52 19.5747 19.994 15.1945 20 9.79029C20 4.38311 15.523 0 10 0ZM10 18.6015C8.8181 18.6015 7.64778 18.3736 6.55585 17.9308C5.46392 17.488 4.47177 16.839 3.63604 16.0208C2.80031 15.2026 2.13738 14.2312 1.68508 13.1622C1.23279 12.0932 1 10.9474 1 9.79029C1 8.63318 1.23279 7.4874 1.68508 6.41837C2.13738 5.34933 2.80031 4.37799 3.63604 3.55979C4.47177 2.74159 5.46392 2.09255 6.55585 1.64975C7.64778 1.20694 8.8181 0.979029 10 0.979029C12.3861 0.98162 14.6738 1.91078 16.361 3.56265C18.0483 5.21452 18.9974 7.45419 19 9.79029C19 12.1272 18.0518 14.3684 16.364 16.0208C14.6761 17.6732 12.3869 18.6015 10 18.6015Z" fill="white"/>
</g>
</g>
</g>
<defs>
<clipPath id="clip0_0_1">
<rect width="1400" height="6956" fill="white" transform="translate(-138 -4605)"/>
</clipPath>
</defs>
</svg>
