<svg width="60" height="60" viewBox="0 0 60 60" fill="none" xmlns="http://www.w3.org/2000/svg">
<circle cx="30" cy="30" r="30" fill="#5D6D5C"/>
<path d="M35.7135 24.7599L27.243 33.0528L23.538 29.4255L23.526 29.4152C23.456 29.3461 23.3727 29.2913 23.2809 29.254C23.1891 29.2167 23.0907 29.1976 22.9913 29.1979C22.8919 29.1981 22.7935 29.2178 22.702 29.2556C22.6104 29.2934 22.5274 29.3486 22.4578 29.4181C22.3882 29.4876 22.3334 29.5699 22.2966 29.6603C22.2598 29.7507 22.2418 29.8474 22.2435 29.9447C22.2452 30.042 22.2666 30.138 22.3065 30.2271C22.3464 30.3162 22.404 30.3966 22.476 30.4638L26.7135 34.6109C26.7829 34.6794 26.8655 34.7338 26.9565 34.7709C27.0476 34.808 27.1452 34.8271 27.2438 34.8271C27.3423 34.8271 27.4399 34.808 27.531 34.7709C27.622 34.7338 27.7046 34.6794 27.774 34.6109L36.774 25.7997L36.7845 25.7879C36.9204 25.6482 36.9948 25.4618 36.9914 25.2689C36.988 25.076 36.9073 24.8922 36.7666 24.7571C36.6258 24.622 36.4365 24.5466 36.2394 24.5471C36.0424 24.5477 35.8534 24.6241 35.7135 24.7599ZM30 15C21.7155 15 15 21.5747 15 29.6854C15 37.7962 21.7155 44.3709 30 44.3709C38.28 44.3621 44.991 37.7918 45 29.6854C45 21.5747 38.2845 15 30 15ZM30 42.9023C28.2272 42.9023 26.4717 42.5605 24.8338 41.8962C23.1959 41.232 21.7076 40.2585 20.4541 39.0312C19.2005 37.8039 18.2061 36.3469 17.5276 34.7433C16.8492 33.1398 16.5 31.4211 16.5 29.6854C16.5 27.9498 16.8492 26.2311 17.5276 24.6275C18.2061 23.024 19.2005 21.567 20.4541 20.3397C21.7076 19.1124 23.1959 18.1388 24.8338 17.4746C26.4717 16.8104 28.2272 16.4685 30 16.4685C33.5792 16.4724 37.0107 17.8662 39.5416 20.344C42.0724 22.8218 43.496 26.1813 43.5 29.6854C43.5 33.1908 42.0777 36.5525 39.5459 39.0312C37.0142 41.5098 33.5804 42.9023 30 42.9023Z" fill="white"/>
<path d="M35.7135 24.7599L27.243 33.0528L23.538 29.4255L23.526 29.4152C23.456 29.3461 23.3727 29.2913 23.2809 29.254C23.1891 29.2167 23.0907 29.1976 22.9913 29.1979C22.8919 29.1981 22.7935 29.2178 22.702 29.2556C22.6104 29.2934 22.5274 29.3486 22.4578 29.4181C22.3882 29.4876 22.3334 29.5699 22.2966 29.6603C22.2598 29.7507 22.2418 29.8474 22.2435 29.9447C22.2452 30.042 22.2666 30.138 22.3065 30.2271C22.3464 30.3162 22.404 30.3966 22.476 30.4638L26.7135 34.6109C26.7829 34.6794 26.8655 34.7338 26.9565 34.7709C27.0476 34.808 27.1452 34.8271 27.2438 34.8271C27.3423 34.8271 27.4399 34.808 27.531 34.7709C27.622 34.7338 27.7046 34.6794 27.774 34.6109L36.774 25.7997L36.7845 25.7879C36.9204 25.6482 36.9948 25.4618 36.9914 25.2689C36.988 25.076 36.9073 24.8922 36.7666 24.7571C36.6258 24.622 36.4365 24.5466 36.2394 24.5471C36.0424 24.5477 35.8534 24.6241 35.7135 24.7599ZM30 15C21.7155 15 15 21.5747 15 29.6854C15 37.7962 21.7155 44.3709 30 44.3709C38.28 44.3621 44.991 37.7918 45 29.6854C45 21.5747 38.2845 15 30 15ZM30 42.9023C28.2272 42.9023 26.4717 42.5605 24.8338 41.8962C23.1959 41.232 21.7076 40.2585 20.4541 39.0312C19.2005 37.8039 18.2061 36.3469 17.5276 34.7433C16.8492 33.1398 16.5 31.4211 16.5 29.6854C16.5 27.9498 16.8492 26.2311 17.5276 24.6275C18.2061 23.024 19.2005 21.567 20.4541 20.3397C21.7076 19.1124 23.1959 18.1388 24.8338 17.4746C26.4717 16.8104 28.2272 16.4685 30 16.4685C33.5792 16.4724 37.0107 17.8662 39.5416 20.344C42.0724 22.8218 43.496 26.1813 43.5 29.6854C43.5 33.1908 42.0777 36.5525 39.5459 39.0312C37.0142 41.5098 33.5804 42.9023 30 42.9023Z" fill="white"/>
<path d="M35.7135 24.7599L27.243 33.0528L23.538 29.4255L23.526 29.4152C23.456 29.3461 23.3727 29.2913 23.2809 29.254C23.1891 29.2167 23.0907 29.1976 22.9913 29.1979C22.8919 29.1981 22.7935 29.2178 22.702 29.2556C22.6104 29.2934 22.5274 29.3486 22.4578 29.4181C22.3882 29.4876 22.3334 29.5699 22.2966 29.6603C22.2598 29.7507 22.2418 29.8474 22.2435 29.9447C22.2452 30.042 22.2666 30.138 22.3065 30.2271C22.3464 30.3162 22.404 30.3966 22.476 30.4638L26.7135 34.6109C26.7829 34.6794 26.8655 34.7338 26.9565 34.7709C27.0476 34.808 27.1452 34.8271 27.2438 34.8271C27.3423 34.8271 27.4399 34.808 27.531 34.7709C27.622 34.7338 27.7046 34.6794 27.774 34.6109L36.774 25.7997L36.7845 25.7879C36.9204 25.6482 36.9948 25.4618 36.9914 25.2689C36.988 25.076 36.9073 24.8922 36.7666 24.7571C36.6258 24.622 36.4365 24.5466 36.2394 24.5471C36.0424 24.5477 35.8534 24.6241 35.7135 24.7599ZM30 15C21.7155 15 15 21.5747 15 29.6854C15 37.7962 21.7155 44.3709 30 44.3709C38.28 44.3621 44.991 37.7918 45 29.6854C45 21.5747 38.2845 15 30 15ZM30 42.9023C28.2272 42.9023 26.4717 42.5605 24.8338 41.8962C23.1959 41.232 21.7076 40.2585 20.4541 39.0312C19.2005 37.8039 18.2061 36.3469 17.5276 34.7433C16.8492 33.1398 16.5 31.4211 16.5 29.6854C16.5 27.9498 16.8492 26.2311 17.5276 24.6275C18.2061 23.024 19.2005 21.567 20.4541 20.3397C21.7076 19.1124 23.1959 18.1388 24.8338 17.4746C26.4717 16.8104 28.2272 16.4685 30 16.4685C33.5792 16.4724 37.0107 17.8662 39.5416 20.344C42.0724 22.8218 43.496 26.1813 43.5 29.6854C43.5 33.1908 42.0777 36.5525 39.5459 39.0312C37.0142 41.5098 33.5804 42.9023 30 42.9023Z" fill="white"/>
</svg>
